<svg width="24" height="24" viewBox="0 0 24 24" fill="none" xmlns="http://www.w3.org/2000/svg">
<g clip-path="url(#clip0_85_1065)">
<g opacity="0.5">
<rect x="3.05" y="3.05" width="17.9" height="17.9" rx="0.95" stroke="#AA182C" stroke-width="0.1"/>
<rect x="2.05" y="4.05" width="19.9" height="15.9" rx="0.95" stroke="#AA182C" stroke-width="0.1"/>
<rect x="4.05" y="2.05" width="15.9" height="19.9" rx="0.95" stroke="#AA182C" stroke-width="0.1"/>
<circle cx="12" cy="12" r="9.95" stroke="#AA182C" stroke-width="0.1"/>
<circle cx="12" cy="12" r="5.95" stroke="#AA182C" stroke-width="0.1"/>
<circle cx="12" cy="12" r="3.95" stroke="#AA182C" stroke-width="0.1"/>
<rect y="8" width="8" height="4" stroke="#AA182C" stroke-width="0.1"/>
<rect y="12" width="8" height="4" stroke="#AA182C" stroke-width="0.1"/>
<rect x="16" y="8" width="8" height="4" stroke="#AA182C" stroke-width="0.1"/>
<rect x="16" y="12" width="8" height="4" stroke="#AA182C" stroke-width="0.1"/>
<rect x="8" width="4" height="8" stroke="#AA182C" stroke-width="0.1"/>
<rect x="12" width="4" height="8" stroke="#AA182C" stroke-width="0.1"/>
<rect x="8" y="16" width="4" height="8" stroke="#AA182C" stroke-width="0.1"/>
<rect x="12" y="16" width="4" height="8" stroke="#AA182C" stroke-width="0.1"/>
<rect x="8" y="12" width="4" height="4" stroke="#AA182C" stroke-width="0.1"/>
<rect x="12" y="12" width="4" height="4" stroke="#AA182C" stroke-width="0.1"/>
<rect x="12" y="8" width="4" height="4" stroke="#AA182C" stroke-width="0.1"/>
<rect x="8" y="8" width="4" height="4" stroke="#AA182C" stroke-width="0.1"/>
<rect y="16" width="8" height="8" stroke="#AA182C" stroke-width="0.1"/>
<rect x="16" y="16" width="8" height="8" stroke="#AA182C" stroke-width="0.1"/>
<rect x="16" width="8" height="8" stroke="#AA182C" stroke-width="0.1"/>
<rect width="8" height="8" stroke="#AA182C" stroke-width="0.1"/>
</g>
<path d="M11 12L19 12" stroke="black" stroke-width="2" stroke-linecap="round" stroke-linejoin="round"/>
<path d="M17 9L19 12L17 15" stroke="black" stroke-width="2" stroke-linecap="round" stroke-linejoin="round"/>
<path d="M15 20H5" stroke="black" stroke-width="2" stroke-linecap="round" stroke-linejoin="round"/>
<path d="M5 4L5 20" stroke="black" stroke-width="2" stroke-linecap="round" stroke-linejoin="round"/>
<path d="M15 4H5" stroke="black" stroke-width="2" stroke-linecap="round" stroke-linejoin="round"/>
</g>
<defs>
<clipPath id="clip0_85_1065">
<rect width="24" height="24" fill="white"/>
</clipPath>
</defs>
</svg>
